# xmcd
#
# Track frame offsets: 
#        151
#        13366
#        25184
#        38290
#        51350
#        65917
#        80288
#        92705
#        104195
#        118295
#        132147
#        146357
#        159583
#        172058
#        185432
#        198630
#        213278
#        226133
#
# Disc length: 3204 seconds
#
# Revision: 0
# Processed by: cddbd v1.4PL0 Copyright (c) Steve Scherf et al.
# Submitted via: ExactAudioCopy v0.90b4
#
DISCID=030c8212
DTITLE=Gertrude 'Ma' Rainey - The Best Of
DYEAR=1900
DGENRE=Acoustic
TTITLE0=Blues Oh Blues
TTITLE1=Damper Down Blues
TTITLE2=Oh Papa Blues
TTITLE3=Big Boy Blues
TTITLE4=Daddy Goodbye Blues
TTITLE5=Black Eye Blues
TTITLE6=Prove It On Me Blues
TTITLE7=Black Cat Hoot Owl Blues
TTITLE8=Hellish Rag
TTITLE9='Ma' Rainey Black Bottom
TTITLE10=Ice Bag Papa
TTITLE11=Don't Fish In My Sea
TTITLE12=Mountain Jack Blues
TTITLE13=Stack O' Lee Blues
TTITLE14=Broken Soul Blues
TTITLE15=See See Rider Blues
TTITLE16=Honey Where You Been So Long?
TTITLE17=Walking Blues
EXTD=
EXTT0=
EXTT1=
EXTT2=
EXTT3=
EXTT4=
EXTT5=
EXTT6=
EXTT7=
EXTT8=
EXTT9=
EXTT10=
EXTT11=
EXTT12=
EXTT13=
EXTT14=
EXTT15=
EXTT16=
EXTT17=
PLAYORDER=
